# Blender v2.76 (sub 0) OBJ File: 'leaves_with_apple.blend'
# www.blender.org
mtllib default_leaves_apple.mtl
o Cube_Cube.001
v -0.494900 -0.492294 -0.498102
v -0.494900 -0.492294 0.497315
v 0.497295 0.502766 -0.498102
v 0.497295 0.502766 0.497315
v 0.497295 -0.492294 0.497315
v -0.494900 0.502766 -0.498102
v 0.497295 -0.492294 -0.498102
v -0.494900 0.502766 0.497315
v 0.158101 0.160790 -0.112246
v 0.158101 -0.131804 -0.112246
v 0.158101 0.160790 0.180347
v 0.158101 -0.131804 0.180347
v -0.134493 0.160790 -0.112246
v -0.134493 -0.131804 -0.112246
v -0.134493 0.160790 0.180347
v -0.134493 -0.131804 0.180347
v -0.026551 0.159064 0.069418
v -0.026551 0.279774 0.069418
v -0.026551 0.159064 -0.002894
v -0.026551 0.279774 -0.002894
v 0.047132 0.159064 0.069418
v 0.047132 0.279774 0.069418
v 0.047132 0.159064 -0.002894
v 0.047132 0.279774 -0.002894
v 0.503668 -0.490861 -0.498102
v -0.494900 -0.497234 -0.498102
v 0.503668 0.501334 -0.498102
v 0.497295 -0.492472 0.502076
v -0.501272 0.501333 -0.498102
v 0.497295 -0.492472 -0.502863
v -0.501272 0.501334 0.497315
v -0.494900 -0.497234 0.497315
v -0.501272 -0.490862 0.497315
v 0.497295 0.502944 0.502076
v 0.503668 0.501333 0.497315
v -0.494900 0.507706 0.497315
v 0.503668 -0.490862 0.497315
v 0.497295 0.502944 -0.502863
v -0.501272 -0.490862 -0.498102
v -0.494900 0.507706 -0.498102
vt 0.499998 0.999901
vt -0.000002 0.999897
vt 0.000002 -0.000002
vt 0.500002 0.000002
vt 0.500000 1.000000
vt 0.000000 1.000000
vt 0.781250 0.875000
vt 0.718750 0.875000
vt 0.718750 0.687500
vt 0.781250 0.687500
vt 0.781172 0.687577
vt 0.718828 0.687578
vt 0.781250 0.874909
vt 0.718841 0.874909
vt 0.781250 0.812423
vt 0.718750 0.812423
vt 0.625000 0.687400
vt 0.625000 0.187500
vt 0.874900 0.187500
vt 0.874900 0.687400
vt 0.875000 0.187500
vt 0.875000 0.687500
vt 0.625000 0.687500
vt 0.875000 0.687429
vn -1.000000 0.000000 0.000000
vn -0.000000 0.000000 -1.000000
vn 1.000000 0.000000 0.000000
vn -0.000000 -0.000000 1.000000
vn 0.000000 1.000000 -0.000000
vn 0.000000 -1.000000 -0.000000
usemtl None
s off
f 36/1/1 40/2/1 26/3/1 32/4/1
f 39/4/2 29/5/2 27/6/2 25/3/2
f 30/4/3 38/5/3 34/6/3 28/3/3
f 37/4/4 35/5/4 31/6/4 33/3/4
f 4/2/5 3/3/5 6/4/5 8/1/5
f 2/4/6 1/1/6 7/2/6 5/3/6
f 18/7/1 20/8/1 19/9/1 17/10/1
f 20/7/2 24/8/2 23/9/2 19/10/2
f 24/11/3 22/7/3 21/8/3 23/12/3
f 22/11/4 18/13/4 17/14/4 21/12/4
f 22/10/5 24/15/5 20/16/5 18/9/5
usemtl None_NONE
f 17/3/6 19/3/6 23/3/6 21/3/6
usemtl None_torches_torch.png
f 10/17/1 12/18/1 11/19/1 9/20/1
f 12/20/2 16/17/2 15/18/2 11/19/2
f 16/17/3 14/18/3 13/19/3 15/20/3
f 14/18/4 10/19/4 9/20/4 13/17/4
f 9/21/6 11/22/6 15/23/6 13/18/6
f 14/17/5 16/18/5 12/21/5 10/24/5
